ply
format ascii 1.0
element vertex 8
comment vertices
property float x
property float y
property float z
end_header
0.20285053551197052 1.97626364231109619 -0.75
0.14996647834777832 1.23588597774505615 -0.75
-0.428966552019119263 1.27723836898803711 -0.75
-0.376082479953765869 2.01761603355407715 -0.75
0.20285053551197052 1.97626364231109619 -1.23181796073913574
0.14996647834777832 1.23588597774505615 -1.23181796073913574
-0.428966552019119263 1.27723836898803711 -1.23181796073913574
-0.376082479953765869 2.01761603355407715 -1.23181796073913574
