ply
format ascii 1.0
element vertex 256
comment vertices
property float x
property float y
property float z
end_header
0.0919097959995269775 2.42183613777160645 -0.392378926277160645
6.84780597686767578 8.60240840911865234 9.03900337219238281
19.4936561584472656 10.6120510101318359 -5.84520339965820312
0.256562232971191406 3.02386379241943359 1.20714354515075684
11.0555143356323242 0.112307310104370117 -0.155470371246337891
1.30011188983917236 1.91575300693511963 0.437615036964416504
-2.8693690299987793 3.52905130386352539 -0.64165884256362915
-1.04505264759063721 2.77695083618164062 0.740818202495574951
2.4766082763671875 -1.43850100040435791 -0.303619027137756348
7.77903842926025391 8.43089866638183594 7.00935554504394531
-1.43055915832519531 3.33153152465820312 -0.207166135311126709
1.03904461860656738 1.81681013107299805 -0.0607090592384338379
-1.90836513042449951 1.95428180694580078 -0.718101739883422852
4.04543781280517578 8.50939559936523438 7.66907787322998047
0.211983650922775269 2.12845826148986816 -0.0300800204277038574
-3.09564661979675293 3.72462701797485352 -0.417120516300201416
-1.71555149555206299 3.10747671127319336 1.03340673446655273
0.406007587909698486 2.10405993461608887 -0.464940071105957031
-0.720327973365783691 2.01232600212097168 -0.57938992977142334
-0.684382975101470947 2.5180208683013916 -0.319065511226654053
0.0711877644062042236 2.33362817764282227 0.598804593086242676
1.12585484981536865 1.77352547645568848 -0.0208547711372375488
-2.2012934684753418 3.3888847827911377 -0.531183421611785889
-1.66294479370117188 3.21883821487426758 0.766039609909057617
-1.38660812377929688 2.82677793502807617 -0.61588442325592041
-2.23802566528320312 3.62804293632507324 0.260501116514205933
0.311455368995666504 2.11402177810668945 0.129321843385696411
-3.35828471183776855 4.06389474868774414 -0.583572566509246826
-0.522574245929718018 2.58830595016479492 -0.250209629535675049
-0.790362238883972168 2.12136340141296387 -0.531775832176208496
-2.49495315551757812 3.34649801254272461 -0.562226414680480957
0.638639926910400391 1.97660815715789795 0.0933055281639099121
0.0990263745188713074 2.17704081535339355 -0.137827321887016296
-1.9830620288848877 3.54994416236877441 0.88742375373840332
1.18230247497558594 1.98099637031555176 0.0635452568531036377
0.464805305004119873 2.0865929126739502 -0.362247586250305176
-0.904873132705688477 2.28433418273925781 -0.648876667022705078
0.444578051567077637 1.97041034698486328 -0.29466778039932251
-2.9460136890411377 3.53801178932189941 0.552978515625
-1.48570382595062256 2.91371345520019531 0.720054447650909424
-2.29134178161621094 2.67701554298400879 -0.710645198822021484
0.760897338390350342 0.964707016944885254 -0.590667068958282471
-0.950960993766784668 3.14748382568359375 -0.235023319721221924
0.00350882112979888916 2.13976502418518066 -0.487606227397918701
-0.358939707279205322 2.47838449478149414 0.639142513275146484
0.199239030480384827 2.15248727798461914 -0.0815227553248405457
-2.06265163421630859 3.21679258346557617 -0.246514976024627686
-1.34132862091064453 3.03452396392822266 -0.621990084648132324
1.11850845813751221 2.05258464813232422 0.103812992572784424
-0.813905954360961914 2.18101954460144043 -0.590893328189849854
0.345792502164840698 1.95185554027557373 -0.134868592023849487
-1.29276049137115479 2.71665763854980469 -0.480371952056884766
0.915004491806030273 1.88974869251251221 0.14701436460018158
-0.991858184337615967 2.7708437442779541 0.480251908302307129
-0.802653074264526367 2.6342310905456543 -0.617290616035461426
-0.0663443654775619507 1.88875055313110352 0.244695007801055908
-1.55725622177124023 3.30692195892333984 0.105839312076568604
0.126166999340057373 2.10218095779418945 -0.243637442588806152
-0.454089492559432983 2.07734894752502441 -0.575381457805633545
-1.72041487693786621 3.22046637535095215 0.989416062831878662
0.183128267526626587 2.10139942169189453 0.0889509320259094238
-1.67737245559692383 2.26361989974975586 -0.628964841365814209
1.10367381572723389 1.66139817237854004 0.246490061283111572
-0.425689637660980225 2.28521347045898438 -0.514389753341674805
-1.87616324424743652 3.07031893730163574 -0.474359363317489624
-2.43198227882385254 3.40326595306396484 -0.623927831649780273
-0.803180038928985596 2.25157022476196289 -0.573805689811706543
0.228063136339187622 2.1862494945526123 -0.142993271350860596
-1.48011767864227295 3.01616764068603516 1.10832345485687256
-0.768812775611877441 2.13140964508056641 -0.566704094409942627
-2.34908556938171387 3.65031647682189941 -0.172312736511230469
-2.25243210792541504 3.62836146354675293 -0.297859162092208862
5.19798469543457031 8.64562511444091797 8.5847625732421875
-2.81560397148132324 3.72271323204040527 -0.533465325832366943
-2.60977864265441895 4.01270723342895508 0.562563657760620117
-0.443822324275970459 2.63335561752319336 -0.461425900459289551
1.1084514856338501 1.88417708873748779 -0.017195969820022583
0.165942370891571045 2.20983076095581055 -0.180541694164276123
0.471033722162246704 2.1149756908416748 -0.0850698351860046387
0.610846757888793945 1.92999100685119629 0.0625077486038208008
-1.68720793724060059 2.67673635482788086 -0.677020907402038574
-2.77306628227233887 4.04612827301025391 -0.695959687232971191
1.28510129451751709 1.76725482940673828 -0.0792713761329650879
-1.86672186851501465 3.24482035636901855 0.686429202556610107
-1.82046878337860107 2.98812961578369141 -0.596257269382476807
-1.33648979663848877 3.07300329208374023 -0.623331606388092041
0.361353367567062378 2.05858111381530762 -0.134339272975921631
0.548522472381591797 2.4481198787689209 0.409960389137268066
-0.428817570209503174 2.4856867790222168 0.455450534820556641
-2.44069790840148926 3.66232037544250488 1.12217926979064941
-0.792308509349822998 2.43689823150634766 -0.569148480892181396
-1.02907335758209229 2.5876927375793457 -0.613413691520690918
-2.52649784088134766 3.46605610847473145 -0.339311867952346802
0.205559507012367249 2.10042119026184082 0.0495892614126205444
1.2618635892868042 2.00072693824768066 0.570175111293792725
-1.72892999649047852 3.31661391258239746 1.33027052879333496
-1.81208896636962891 3.58959770202636719 -0.581510722637176514
-0.791256308555603027 2.27081608772277832 -0.534326791763305664
-0.74183046817779541 2.05429744720458984 -0.587868630886077881
0.590583562850952148 2.01917719841003418 -0.334245502948760986
-0.256969928741455078 1.99489545822143555 0.0244736671447753906
0.538356244564056396 1.91029167175292969 -0.307767808437347412
-0.531302928924560547 2.19185781478881836 0.0115033388137817383
-1.63408112525939941 3.60846114158630371 -0.271983504295349121
0.188595831394195557 2.202392578125 2.83122062683105469e-06
-0.76589280366897583 2.14728355407714844 -0.584439754486083984
0.13188035786151886 2.13909626007080078 -0.0500313043594360352
-1.28816449642181396 2.55947756767272949 -0.630472183227539062
-0.129756838083267212 2.29432272911071777 -0.341262936592102051
1.19263577461242676 2.03807616233825684 0.0345703661441802979
-1.42794466018676758 2.96239900588989258 -0.00816231966018676758
-2.14354276657104492 3.46770524978637695 0.644633829593658447
-1.22602236270904541 2.83501410484313965 0.191521525382995605
-1.94579553604125977 3.22189712524414062 -0.3107796311378479
-1.39697766304016113 2.7522275447845459 -0.535450875759124756
0.239047423005104065 2.14356374740600586 0.0223911702632904053
0.35135158896446228 2.07645821571350098 -0.0980046391487121582
-1.97044849395751953 3.25727534294128418 -0.273084074258804321
-0.702284336090087891 2.40446257591247559 0.279064536094665527
0.352466106414794922 2.02661848068237305 0.0211185216903686523
-1.57557618618011475 2.99389886856079102 0.785084903240203857
-0.793754220008850098 2.91779518127441406 -0.38889843225479126
0.566364645957946777 2.08933115005493164 0.116177104413509369
0.434571355581283569 1.98519062995910645 0.0060316920280456543
0.875978767871856689 1.93145740032196045 0.220764517784118652
-2.33892297744750977 3.23240280151367188 -0.658803164958953857
-0.80996251106262207 2.11760711669921875 -0.577525794506072998
0.182966411113739014 2.31155514717102051 -0.314870446920394897
-1.42583942413330078 2.85319399833679199 0.564356446266174316
-2.08183717727661133 3.39810585975646973 0.569257616996765137
0.14997979998588562 2.18666458129882812 -0.450799107551574707
-0.977318286895751953 3.39604449272155762 -0.3204822838306427
0.161028236150741577 2.2251121997833252 0.371210753917694092
-0.0418527275323867798 2.32609081268310547 -0.487198173999786377
0.0451166853308677673 2.4815528392791748 0.564360618591308594
-1.83931660652160645 1.96942019462585449 -0.664867877960205078
1.31094419956207275 1.80194723606109619 0.125995635986328125
-0.845353245735168457 2.65867948532104492 0.569479405879974365
1.22522652149200439 1.79039943218231201 0.0160630121827125549
1.04205060005187988 1.76473915576934814 0.101824074983596802
-1.66472339630126953 2.90513491630554199 0.980904340744018555
-0.530608415603637695 2.38889122009277344 -0.563461184501647949
0.25999826192855835 2.13488459587097168 -0.0316811203956604004
0.675077676773071289 1.92780280113220215 -0.313131988048553467
-0.779238343238830566 2.68966221809387207 0.744581043720245361
-3.02634024620056152 3.63387441635131836 -0.590223193168640137
-0.762993097305297852 2.1405181884765625 -0.561387479305267334
-2.89757561683654785 3.88705325126647949 0.861442506313323975
-2.6403343677520752 3.45910143852233887 -0.526745200157165527
0.0883705615997314453 2.47428798675537109 -0.218874186277389526
-0.547886013984680176 2.36438369750976562 -0.530516505241394043
0.170304417610168457 2.20414137840270996 -0.0701584666967391968
-1.75964081287384033 3.08951473236083984 0.947090864181518555
1.13805890083312988 1.7536386251449585 0.238207221031188965
-1.69143819808959961 2.90593099594116211 -0.636190831661224365
-1.37823760509490967 2.97542166709899902 0.938502788543701172
-1.66129541397094727 3.13336467742919922 -0.444750726222991943
-0.830520331859588623 2.73966741561889648 0.274450361728668213
-1.47021663188934326 3.45159053802490234 -0.54278188943862915
-1.51854085922241211 3.3337244987487793 0.405873775482177734
0.210612237453460693 2.18650674819946289 -0.272829353809356689
-2.78499531745910645 3.99476861953735352 -0.663383603096008301
-2.33684897422790527 3.33155918121337891 -0.477803200483322144
-2.76916027069091797 3.57100820541381836 -0.219766914844512939
1.12920153141021729 2.07906174659729004 0.0471224784851074219
1.14255130290985107 1.85213208198547363 0.0330433882772922516
-2.99884772300720215 3.8048408031463623 -0.643819093704223633
-0.81045377254486084 2.40854263305664062 -0.550045490264892578
-1.89228856563568115 3.08587074279785156 -0.402728766202926636
-0.726672708988189697 2.60010981559753418 -0.513626694679260254
-0.786441564559936523 2.46410679817199707 -0.557396769523620605
-1.46480023860931396 3.12341070175170898 1.05710029602050781
10.5211019515991211 0.120811223983764648 -0.136046648025512695
0.458683699369430542 2.01681303977966309 -0.0689983367919921875
-0.760833144187927246 2.48010897636413574 -0.610039949417114258
-1.29406189918518066 2.23180103302001953 -0.596336901187896729
0.169073671102523804 2.17655658721923828 -0.0271478593349456787
-0.718100905418395996 2.16635560989379883 -0.552014708518981934
-1.14531934261322021 2.85214972496032715 -0.584854364395141602
0.905289888381958008 2.05821657180786133 0.0785836279392242432
-0.226608261466026306 2.10193490982055664 0.0260706543922424316
-0.0452835261821746826 2.31188869476318359 -0.122367441654205322
0.289783328771591187 2.06900215148925781 0.0585329532623291016
0.0936332345008850098 2.15031838417053223 -0.196402877569198608
-0.683604955673217773 2.1966392993927002 -0.584466516971588135
-2.37060928344726562 3.83965444564819336 0.891515374183654785
0.117301642894744873 2.11391425132751465 -0.127779066562652588
0.298752486705780029 2.18084287643432617 -0.115110993385314941
-0.686594188213348389 2.03603982925415039 -0.57916027307510376
-2.55241012573242188 3.87157607078552246 0.00884622335433959961
-1.8431934118270874 3.59540343284606934 -0.333063125610351562
0.0273264274001121521 2.33516740798950195 -0.159235358238220215
-0.606331288814544678 2.07237482070922852 -0.537766218185424805
-0.73964458703994751 2.14992189407348633 -0.573478341102600098
0.164231330156326294 2.16681957244873047 -0.00355499982833862305
1.07745945453643799 1.897613525390625 0.15860477089881897
-2.51356267929077148 3.63562154769897461 0.114186882972717285
-2.02643704414367676 3.4345550537109375 0.74615633487701416
-2.8823387622833252 3.65692329406738281 -0.529642701148986816
-0.761005640029907227 2.50667262077331543 -0.48016473650932312
-0.982013285160064697 2.22588014602661133 -0.630228161811828613
0.2013406902551651 2.14414882659912109 -0.0601938441395759583
-0.755302071571350098 2.14602255821228027 -0.501193463802337646
-1.76822257041931152 3.36633849143981934 0.92025524377822876
-2.10660052299499512 3.49943137168884277 0.762617111206054688
-1.72446346282958984 3.11313962936401367 -0.512810826301574707
-1.75998938083648682 3.24402356147766113 0.704968154430389404
0.225685685873031616 2.10766816139221191 -0.00154167413711547852
-0.980198323726654053 3.00620198249816895 0.17250525951385498
1.3334498405456543 1.83375108242034912 0.442409396171569824
-1.21500635147094727 2.73691129684448242 -0.566005110740661621
0.156474962830543518 2.15482950210571289 -0.0449168756604194641
0.312751352787017822 2.03900647163391113 0.0545849502086639404
-0.679824233055114746 2.37847065925598145 -0.62602686882019043
-0.787110209465026855 2.11801481246948242 -0.555771946907043457
-1.34567856788635254 3.03225255012512207 -0.243685305118560791
-0.79486316442489624 2.94803524017333984 -0.383145838975906372
-2.20697498321533203 3.43472886085510254 -0.5474129319190979
-2.10279440879821777 2.33245587348937988 -0.706355869770050049
-1.4969635009765625 3.06500625610351562 0.0691735148429870605
-3.09123635292053223 3.63407135009765625 -0.555803239345550537
0.568228244781494141 1.97146940231323242 -0.249522686004638672
-0.141540110111236572 2.28325390815734863 -0.37545892596244812
-1.65597319602966309 3.19819140434265137 -0.0208250880241394043
-1.42541289329528809 2.9067988395690918 -0.648240864276885986
-0.669968903064727783 2.54480934143066406 0.306842327117919922
-0.7101173996925354 2.25375652313232422 -0.599646687507629395
0.511855900287628174 1.906838059425354 -0.382633209228515625
0.181739211082458496 2.04484224319458008 0.107214629650115967
1.16012954711914062 1.73031949996948242 -0.0178763717412948608
-2.9145505428314209 3.64711761474609375 -0.512833356857299805
0.616846919059753418 1.83324825763702393 -0.0476195216178894043
1.01813030242919922 2.02209615707397461 0.439554929733276367
-1.67083227634429932 3.14650487899780273 0.878549277782440186
1.18363630771636963 1.87744331359863281 0.112312957644462585
-1.31753146648406982 2.6658179759979248 -0.660793662071228027
1.08945488929748535 1.74459028244018555 0.134012579917907715
-2.01134872436523438 3.33823394775390625 1.01337671279907227
0.651934802532196045 1.89680004119873047 0.131631314754486084
0.46148604154586792 1.98916077613830566 -0.273937404155731201
-1.65918278694152832 3.21297883987426758 -0.257302641868591309
-2.01526594161987305 3.74838447570800781 0.806488037109375
-0.563080847263336182 2.50164318084716797 -0.568332552909851074
-1.45975053310394287 2.87112712860107422 0.831465780735015869
-0.768788814544677734 2.12984299659729004 -0.565857529640197754
-0.129543974995613098 2.27849435806274414 0.080036163330078125
-2.21961784362792969 3.46062755584716797 -0.606653988361358643
-2.87125444412231445 3.71832895278930664 -0.577464580535888672
-1.26201522350311279 2.71907639503479004 -0.603445827960968018
0.241375714540481567 2.11844062805175781 0.0978511795401573181
-2.3378748893737793 3.3122713565826416 -0.485675215721130371
0.239232540130615234 2.10022330284118652 -0.253144025802612305
-1.81910443305969238 3.02349495887756348 -0.397436022758483887
0.618842482566833496 2.08896446228027344 -0.0904948711395263672
0.624336481094360352 2.0973351001739502 -0.46478879451751709
-1.53245878219604492 3.31162714958190918 -0.657328188419342041
