ply
format ascii 1.0
element vertex 256
comment vertices
property float x
property float y
property float z
end_header
0.0787081196904182434 2.39323067665100098 -0.386047959327697754
6.26890039443969727 8.95769309997558594 9.27995395660400391
19.0309543609619141 10.7372035980224609 -5.69173669815063477
-0.531215906143188477 2.98120546340942383 1.17866683006286621
10.6851673126220703 0.0757192820310592651 -0.0291684865951538086
1.2605208158493042 1.78379702568054199 0.507789194583892822
-3.2674555778503418 3.30612325668334961 -0.74435955286026001
-1.74841296672821045 0.147804498672485352 0.172108590602874756
1.77521991729736328 -1.53133440017700195 -0.38098984956741333
7.19686460494995117 8.79244613647460938 7.25204992294311523
-0.251680612564086914 2.93639230728149414 -0.476599663496017456
1.17901670932769775 1.73009276390075684 0.00388643890619277954
-2.49727773666381836 1.51574254035949707 -0.687595367431640625
3.49543428421020508 8.8101043701171875 7.89475393295288086
0.200647711753845215 2.1682133674621582 -5.27892261743545532e-05
-3.78339862823486328 3.52207779884338379 -0.603739619255065918
-1.7446129322052002 3.10617184638977051 1.20603179931640625
0.380022883415222168 2.14940333366394043 -0.480491608381271362
-0.757570207118988037 2.17127609252929688 -0.557149410247802734
-0.749337255954742432 2.5014650821685791 -0.49190908670425415
-0.6153411865234375 -0.383921384811401367 0.0356509089469909668
1.20876920223236084 1.72660613059997559 -0.0303709059953689575
-1.54665064811706543 3.11493897438049316 -0.612705647945404053
-1.70820474624633789 3.1664576530456543 0.887799620628356934
-1.37765145301818848 2.8494868278503418 -0.712720215320587158
-2.86519503593444824 1.80067801475524902 -0.287043243646621704
0.233071088790893555 2.15735006332397461 0.0195771530270576477
-4.25090837478637695 3.9966433048248291 -0.631947934627532959
0.0527235269546508789 2.44343996047973633 -0.453609704971313477
-0.751081168651580811 2.17828202247619629 -0.550354123115539551
-2.64320826530456543 2.13439321517944336 -0.81181037425994873
0.521095752716064453 1.96109020709991455 -0.0255171284079551697
0.156391263008117676 2.1545407772064209 -0.00612626969814300537
-1.98662996292114258 3.38008475303649902 1.03849947452545166
1.19474983215332031 1.86479747295379639 0.0560680888593196869
0.391051292419433594 1.97808444499969482 -0.324914872646331787
-0.763734936714172363 2.2059168815612793 -0.589056968688964844
0.394262731075286865 1.89199042320251465 -0.273400753736495972
-3.90612649917602539 -0.904157400131225586 -0.34700775146484375
-1.66421294212341309 2.32062911987304688 0.60674440860748291
-2.68323397636413574 1.34887933731079102 -0.750107526779174805
0.956806063652038574 0.989511549472808838 -0.645730674266815186
0.489023447036743164 2.88080167770385742 -0.465824872255325317
0.0544693544507026672 2.09950399398803711 -0.469956010580062866
0.795841991901397705 -2.10868358612060547 -0.336732387542724609
0.202568948268890381 2.17154574394226074 -0.00433055311441421509
-1.51502978801727295 0.0975286960601806641 -0.918348908424377441
-1.34808647632598877 2.90834140777587891 -0.647301137447357178
1.14283370971679688 1.88015377521514893 0.144967734813690186
-0.761058330535888672 2.19114279747009277 -0.564381003379821777
0.25073474645614624 2.0872337818145752 -0.0682667642831802368
-1.33769905567169189 2.79337549209594727 -0.65175706148147583
1.13659071922302246 1.82638883590698242 0.218476176261901855
-1.61173295974731445 -0.69872593879699707 -0.413885056972503662
-0.800320208072662354 2.56131720542907715 -0.608890652656555176
0.635582685470581055 -1.33340144157409668 -0.458503007888793945
-1.11290526390075684 1.82446682453155518 -0.357540547847747803
0.170158073306083679 2.17848920822143555 -0.0437008589506149292
-0.710050642490386963 2.15457701683044434 -0.569893419742584229
-1.75134706497192383 3.18691682815551758 1.1496741771697998
0.189088910818099976 2.16061854362487793 0.00863177329301834106
-1.94143056869506836 2.04551815986633301 -0.651590108871459961
1.12948751449584961 1.71080243587493896 0.213128387928009033
-0.592284023761749268 2.32618594169616699 -0.541492700576782227
-1.9487687349319458 3.03388404846191406 -0.686515569686889648
-2.83778882026672363 2.93233871459960938 -0.752623319625854492
-0.775905847549438477 2.20578837394714355 -0.561410725116729736
0.214832454919815063 2.17683792114257812 -0.0156032443046569824
-1.5136789083480835 3.01634407043457031 1.29303371906280518
-0.754080533981323242 2.18286013603210449 -0.55881190299987793
-1.61598825454711914 3.22057437896728516 -0.33052632212638855
-1.7460479736328125 3.76476812362670898 -0.406621873378753662
4.63001060485839844 8.97965717315673828 8.81984710693359375
-2.78035688400268555 3.79663586616516113 -0.666081726551055908
-1.92537331581115723 3.50496578216552734 0.346725374460220337
-0.491687923669815063 2.60379409790039062 -0.62456667423248291
1.19043803215026855 1.80727410316467285 0.0115919765084981918
0.189715266227722168 2.16736245155334473 0.00257827341556549072
0.281073868274688721 2.16390252113342285 -0.0874145254492759705
0.874514579772949219 1.75549459457397461 -0.0671834498643875122
-1.66688001155853271 2.71703386306762695 -0.697286128997802734
-2.49704670906066895 4.25122690200805664 -0.645812273025512695
1.23763728141784668 1.74168074131011963 -0.086263023316860199
-2.06852173805236816 2.89060878753662109 0.688629746437072754
-2.01910090446472168 2.8560795783996582 -0.712959647178649902
-1.3626410961151123 2.93315291404724121 -0.65100020170211792
0.238114207983016968 2.15174031257629395 -0.0524900779128074646
2.5855104923248291 -1.33625435829162598 -0.316871881484985352
-0.559632062911987305 -1.33992624282836914 -0.440037012100219727
-4.03824090957641602 0.793072938919067383 0.198641121387481689
-0.806486964225769043 2.23386430740356445 -0.567315816879272461
-0.868684530258178711 2.55632305145263672 -0.606041967868804932
-2.1817328929901123 1.68473231792449951 -0.863588094711303711
0.192683935165405273 2.1589806079864502 0.00233519449830055237
1.2391735315322876 1.87345743179321289 0.638916194438934326
-2.24991011619567871 3.15715479850769043 1.44759130477905273
-1.55202889442443848 3.93074393272399902 -0.689880967140197754
-0.782188534736633301 2.19821286201477051 -0.54738914966583252
-0.760840833187103271 2.1822516918182373 -0.561519861221313477
0.889566421508789062 1.9917372465133667 -0.351297706365585327
-0.821970105171203613 -1.29156208038330078 -0.638968944549560547
0.453085005283355713 1.87000131607055664 -0.325478971004486084
-1.50933265686035156 -1.35522699356079102 -0.687795758247375488
-0.0599076747894287109 3.80517172813415527 -0.390471160411834717
0.190374568104743958 2.17450952529907227 0.0121050532907247543
-0.759795546531677246 2.18705964088439941 -0.561970293521881104
0.170204505324363708 2.16625046730041504 0.00505390018224716187
-1.24621975421905518 2.63308048248291016 -0.664419770240783691
-0.10611116886138916 2.21266412734985352 -0.395176678895950317
1.20115435123443604 1.91043508052825928 0.030415315181016922
-1.25096499919891357 -1.35037326812744141 -0.99960857629776001
-2.55967497825622559 2.53426957130432129 0.447957038879394531
-2.24736595153808594 -1.25723099708557129 -0.836714625358581543
-1.961617112159729 2.7415611743927002 -0.612901628017425537
-1.38014113903045654 2.80975866317749023 -0.696252167224884033
0.197094008326530457 2.16365790367126465 0.00335574895143508911
0.244033455848693848 2.15576624870300293 -0.030520118772983551
-1.2611919641494751 2.55772900581359863 -0.666381001472473145
-2.42853140830993652 -2.26680397987365723 -0.758287310600280762
0.254523217678070068 2.13735079765319824 -0.0316914916038513184
-1.63347542285919189 2.96748590469360352 0.879745841026306152
0.421320676803588867 2.1632225513458252 -0.600515961647033691
0.452123939990997314 1.97944068908691406 -0.0016356930136680603
0.306976348161697388 2.06317853927612305 -0.0261785611510276794
1.07175242900848389 1.82345223426818848 0.310077100992202759
-2.41337752342224121 2.33398604393005371 -0.714484095573425293
-0.753629863262176514 2.17903494834899902 -0.562657594680786133
0.203875720500946045 2.1667788028717041 -0.1049480140209198
-2.42778968811035156 0.696120023727416992 0.0259295105934143066
-2.66966772079467773 1.9849550724029541 0.138606429100036621
0.195680737495422363 2.13849639892578125 -0.382897734642028809
0.592649340629577637 3.54692173004150391 -0.364891350269317627
0.182528331875801086 2.08220410346984863 0.221972197294235229
0.010472465306520462 2.32429790496826172 -0.499482333660125732
-1.02649450302124023 -0.867219924926757812 -0.130317926406860352
-2.31455779075622559 1.47356772422790527 -0.634457111358642578
1.25498521327972412 1.75980305671691895 0.0836350023746490479
-1.85205769538879395 -2.06384611129760742 -0.419366180896759033
1.20849490165710449 1.73781037330627441 -0.0160982683300971985
1.17107129096984863 1.72515809535980225 0.0953365713357925415
-1.98593199253082275 2.28074073791503906 0.963770091533660889
-0.752196133136749268 2.30218911170959473 -0.564801335334777832
0.207102775573730469 2.16341257095336914 -0.0085946936160326004
1.03693771362304688 1.82163023948669434 -0.3816680908203125
-0.773786664009094238 -0.302869081497192383 0.0916280746459960938
-3.59388113021850586 3.47266316413879395 -0.747999906539916992
-0.757957577705383301 2.18435025215148926 -0.55665135383605957
-2.67759037017822266 0.806756019592285156 -0.0492420196533203125
-3.07088208198547363 2.14874935150146484 -0.847887635231018066
0.334574341773986816 2.61336708068847656 -0.211252644658088684
-0.770435452461242676 2.29166078567504883 -0.557323575019836426
0.191197454929351807 2.17200374603271484 0.00408359616994857788
-1.80707645416259766 3.09527111053466797 1.07071185111999512
1.14156103134155273 1.72274684906005859 0.210747599601745605
-1.59913885593414307 2.91539645195007324 -0.700845837593078613
-1.38770186901092529 2.92024469375610352 1.13666379451751709
-1.60168397426605225 3.09653806686401367 -0.651974737644195557
-1.09770715236663818 -0.873357534408569336 -0.760164201259613037
-0.840168178081512451 3.71465349197387695 -0.603649556636810303
-0.870810508728027344 2.69948244094848633 0.331508874893188477
0.191998958587646484 2.19412708282470703 -0.0486416071653366089
-2.57788944244384766 4.216888427734375 -0.622006893157958984
-1.80491948127746582 2.23445248603820801 -0.711252689361572266
-3.8119053840637207 0.856237411499023438 -0.797327995300292969
1.15870392322540283 1.96954405307769775 0.054071575403213501
1.19389832019805908 1.79087448120117188 0.0498913228511810303
-3.04124903678894043 3.8465423583984375 -0.71176987886428833
-0.780399680137634277 2.21506333351135254 -0.557436704635620117
-1.83582234382629395 2.94094228744506836 -0.646937966346740723
-0.759955167770385742 2.53311419486999512 -0.58537447452545166
-0.822384476661682129 2.30430769920349121 -0.577973723411560059
-1.5042949914932251 3.02538108825683594 1.25717520713806152
10.1694059371948242 0.0505793020129203796 -0.0195474550127983093
0.290361940860748291 2.12194657325744629 -0.0764094144105911255
-0.790690004825592041 2.36172866821289062 -0.57656252384185791
-1.38539958000183105 2.20239686965942383 -0.596158504486083984
0.187344759702682495 2.17187404632568359 0.0105183795094490051
-0.781618952751159668 2.20038580894470215 -0.541334867477416992
-1.21976268291473389 2.83661985397338867 -0.667130649089813232
1.01204633712768555 1.9486243724822998 0.069266200065612793
-0.847181856632232666 -0.274875164031982422 -0.505437195301055908
0.0930441319942474365 2.20282292366027832 -0.0331692993640899658
0.226112991571426392 2.1434786319732666 -0.00559414923191070557
0.158921182155609131 2.16173267364501953 -0.021996617317199707
-0.783136427402496338 2.20338153839111328 -0.54904937744140625
-2.25870060920715332 3.92818522453308105 0.934811174869537354
0.164478152990341187 2.15977764129638672 0.000921979546546936035
0.222374394536018372 2.1727440357208252 -0.0241017192602157593
-0.762237489223480225 2.17307567596435547 -0.55667644739151001
-1.49268901348114014 1.57049942016601562 -0.544149696826934814
-1.09227299690246582 3.69012117385864258 -0.534423828125
0.146664351224899292 2.20345354080200195 -0.0331900566816329956
-0.775546252727508545 2.17160344123840332 -0.539677202701568604
-0.771376967430114746 2.1986386775970459 -0.557619094848632812
0.182629987597465515 2.17128825187683105 0.0113263223320245743
1.15048825740814209 1.80096077919006348 0.177830085158348083
-1.68007314205169678 -0.644236087799072266 -0.86320120096206665
-2.07211208343505859 3.28297972679138184 0.833974599838256836
-2.82849860191345215 3.6959998607635498 -0.666321635246276855
-0.783164501190185547 2.35602307319641113 -0.561088442802429199
-0.78168952465057373 2.18411517143249512 -0.593073129653930664
0.201772615313529968 2.17004156112670898 -0.00198355317115783691
-0.752614796161651611 2.18260097503662109 -0.539983630180358887
-1.82209551334381104 3.27084589004516602 1.01734364032745361
-2.13541245460510254 3.35642337799072266 0.875904858112335205
-1.6977379322052002 3.05824971199035645 -0.679740548133850098
-1.83923530578613281 3.23762416839599609 0.828726649284362793
0.199684605002403259 2.16504287719726562 -0.00177398137748241425
0.141191780567169189 1.62747871875762939 -0.243477731943130493
1.29517054557800293 1.71920692920684814 0.495518356561660767
-1.28637957572937012 2.79837274551391602 -0.681103110313415527
0.183586597442626953 2.16882681846618652 0.00195243954658508301
0.241671830415725708 2.1301732063293457 -0.016447409987449646
-0.778607845306396484 2.20131015777587891 -0.576853036880493164
-0.751951217651367188 2.17920255661010742 -0.556841671466827393
0.276926994323730469 0.00863194465637207031 -0.952031135559082031
0.260211050510406494 2.87564754486083984 -0.468242943286895752
-1.71377086639404297 3.33907556533813477 -0.617143809795379639
-2.60887002944946289 1.1723942756652832 -0.707848787307739258
0.187393546104431152 -0.63515472412109375 -0.773083746433258057
-3.90356111526489258 3.19960618019104004 -0.731509566307067871
0.491033643484115601 1.87256169319152832 -0.28219836950302124
-0.143229782581329346 2.27530908584594727 -0.420319586992263794
-2.2031865119934082 -1.05351996421813965 -1.06159162521362305
-1.39031970500946045 2.90313720703125 -0.710657715797424316
-1.3025050163269043 -1.66004085540771484 -0.69399571418762207
-0.781100630760192871 2.19935154914855957 -0.558423101902008057
0.605981886386871338 1.83247017860412598 -0.431804478168487549
0.188047900795936584 2.15221524238586426 0.012810833752155304
1.20439398288726807 1.71552062034606934 -0.019798625260591507
-3.02749252319335938 3.61790204048156738 -0.673873007297515869
0.813050389289855957 1.45509994029998779 -0.219842866063117981
1.00475609302520752 1.90996313095092773 0.453078031539916992
-1.74682974815368652 3.17328786849975586 1.04964160919189453
1.18230271339416504 1.80911874771118164 0.0978230014443397522
-1.36742293834686279 2.76470255851745605 -0.6871681809425354
1.17414176464080811 1.71945643424987793 0.115980170667171478
-2.06506967544555664 3.29533958435058594 1.14091932773590088
0.532694399356842041 0.230698704719543457 -0.414053261280059814
0.389047086238861084 1.91210269927978516 -0.266414523124694824
-0.696092128753662109 2.15117359161376953 -0.60748445987701416
-1.6558307409286499 3.84299945831298828 0.919496417045593262
-0.73099827766418457 2.43419551849365234 -0.581892430782318115
-1.73467302322387695 1.67364752292633057 0.576889574527740479
-0.75389409065246582 2.18258309364318848 -0.558607399463653564
-0.272244572639465332 1.95942926406860352 -0.108160138130187988
-2.12071657180786133 3.44104743003845215 -0.698510408401489258
-2.81335234642028809 3.80669093132019043 -0.653654634952545166
-1.30980432033538818 2.79436969757080078 -0.683009207248687744
0.200004726648330688 2.16100978851318359 0.0101552456617355347
-1.81529879570007324 2.09617424011230469 -0.723783791065216064
0.184702858328819275 2.19862675666809082 -0.0551033169031143188
-1.99243366718292236 2.85445594787597656 -0.613464832305908203
0.512205541133880615 1.95997095108032227 -0.210456997156143188
0.872723281383514404 2.20847249031066895 -0.477297455072402954
-1.20762860774993896 3.41176223754882812 -0.672998905181884766
