ply
format ascii 1.0
element vertex 78
comment vertices
property float x
property float y
property float z
end_header
0.200647711753845215 2.1682133674621582 -5.27892261743545532e-05
-0.757570207118988037 2.17127609252929688 -0.557149410247802734
-0.749337255954742432 2.5014650821685791 -0.49190908670425415
0.233071088790893555 2.15735006332397461 0.0195771530270576477
-0.751081168651580811 2.17828202247619629 -0.550354123115539551
0.156391263008117676 2.1545407772064209 -0.00612626969814300537
-0.763734936714172363 2.2059168815612793 -0.589056968688964844
0.202568948268890381 2.17154574394226074 -0.00433055311441421509
-1.34808647632598877 2.90834140777587891 -0.647301137447357178
-0.761058330535888672 2.19114279747009277 -0.564381003379821777
0.25073474645614624 2.0872337818145752 -0.0682667642831802368
-1.33769905567169189 2.79337549209594727 -0.65175706148147583
-0.800320208072662354 2.56131720542907715 -0.608890652656555176
0.170158073306083679 2.17848920822143555 -0.0437008589506149292
-0.710050642490386963 2.15457701683044434 -0.569893419742584229
0.189088910818099976 2.16061854362487793 0.00863177329301834106
-0.775905847549438477 2.20578837394714355 -0.561410725116729736
0.214832454919815063 2.17683792114257812 -0.0156032443046569824
-0.754080533981323242 2.18286013603210449 -0.55881190299987793
0.189715266227722168 2.16736245155334473 0.00257827341556549072
0.281073868274688721 2.16390252113342285 -0.0874145254492759705
-1.3626410961151123 2.93315291404724121 -0.65100020170211792
0.238114207983016968 2.15174031257629395 -0.0524900779128074646
-0.806486964225769043 2.23386430740356445 -0.567315816879272461
-0.868684530258178711 2.55632305145263672 -0.606041967868804932
0.192683935165405273 2.1589806079864502 0.00233519449830055237
-0.782188534736633301 2.19821286201477051 -0.54738914966583252
-0.760840833187103271 2.1822516918182373 -0.561519861221313477
0.190374568104743958 2.17450952529907227 0.0121050532907247543
-0.759795546531677246 2.18705964088439941 -0.561970293521881104
0.170204505324363708 2.16625046730041504 0.00505390018224716187
0.197094008326530457 2.16365790367126465 0.00335574895143508911
0.244033455848693848 2.15576624870300293 -0.030520118772983551
0.254523217678070068 2.13735079765319824 -0.0316914916038513184
0.306976348161697388 2.06317853927612305 -0.0261785611510276794
-0.753629863262176514 2.17903494834899902 -0.562657594680786133
0.203875720500946045 2.1667788028717041 -0.1049480140209198
-0.752196133136749268 2.30218911170959473 -0.564801335334777832
0.207102775573730469 2.16341257095336914 -0.0085946936160326004
-0.757957577705383301 2.18435025215148926 -0.55665135383605957
-0.770435452461242676 2.29166078567504883 -0.557323575019836426
0.191197454929351807 2.17200374603271484 0.00408359616994857788
0.191998958587646484 2.19412708282470703 -0.0486416071653366089
-0.780399680137634277 2.21506333351135254 -0.557436704635620117
-0.759955167770385742 2.53311419486999512 -0.58537447452545166
-0.822384476661682129 2.30430769920349121 -0.577973723411560059
0.290361940860748291 2.12194657325744629 -0.0764094144105911255
-0.790690004825592041 2.36172866821289062 -0.57656252384185791
0.187344759702682495 2.17187404632568359 0.0105183795094490051
-0.781618952751159668 2.20038580894470215 -0.541334867477416992
0.0930441319942474365 2.20282292366027832 -0.0331692993640899658
0.226112991571426392 2.1434786319732666 -0.00559414923191070557
0.158921182155609131 2.16173267364501953 -0.021996617317199707
-0.783136427402496338 2.20338153839111328 -0.54904937744140625
0.164478152990341187 2.15977764129638672 0.000921979546546936035
0.222374394536018372 2.1727440357208252 -0.0241017192602157593
-0.762237489223480225 2.17307567596435547 -0.55667644739151001
0.146664351224899292 2.20345354080200195 -0.0331900566816329956
-0.775546252727508545 2.17160344123840332 -0.539677202701568604
-0.771376967430114746 2.1986386775970459 -0.557619094848632812
0.182629987597465515 2.17128825187683105 0.0113263223320245743
-0.783164501190185547 2.35602307319641113 -0.561088442802429199
-0.78168952465057373 2.18411517143249512 -0.593073129653930664
0.201772615313529968 2.17004156112670898 -0.00198355317115783691
-0.752614796161651611 2.18260097503662109 -0.539983630180358887
0.199684605002403259 2.16504287719726562 -0.00177398137748241425
-1.28637957572937012 2.79837274551391602 -0.681103110313415527
0.183586597442626953 2.16882681846618652 0.00195243954658508301
0.241671830415725708 2.1301732063293457 -0.016447409987449646
-0.778607845306396484 2.20131015777587891 -0.576853036880493164
-0.751951217651367188 2.17920255661010742 -0.556841671466827393
-0.781100630760192871 2.19935154914855957 -0.558423101902008057
0.188047900795936584 2.15221524238586426 0.012810833752155304
-0.73099827766418457 2.43419551849365234 -0.581892430782318115
-0.75389409065246582 2.18258309364318848 -0.558607399463653564
-1.30980432033538818 2.79436969757080078 -0.683009207248687744
0.200004726648330688 2.16100978851318359 0.0101552456617355347
0.184702858328819275 2.19862675666809082 -0.0551033169031143188
